<svg width="624" height="69" viewBox="0 0 624 69" fill="none" xmlns="http://www.w3.org/2000/svg">
<path d="M140.874 5.54545H137.201V16.5227H137.048L129.513 5.54545H126.275V23H129.965V12.0142H130.093L137.687 23H140.874V5.54545ZM143.855 23H147.486V9.90909H143.855V23ZM145.679 8.22159C146.761 8.22159 147.648 7.39489 147.648 6.38068C147.648 5.375 146.761 4.54829 145.679 4.54829C144.605 4.54829 143.719 5.375 143.719 6.38068C143.719 7.39489 144.605 8.22159 145.679 8.22159ZM154.025 15.4318C154.033 13.7443 155.039 12.7557 156.505 12.7557C157.962 12.7557 158.84 13.7102 158.832 15.3125V23H162.462V14.6648C162.462 11.6136 160.673 9.73864 157.945 9.73864C156.002 9.73864 154.596 10.6932 154.008 12.2188H153.854V9.90909H150.394V23H154.025V15.4318ZM171.222 28.1818C174.963 28.1818 177.622 26.4773 177.622 23.1278V9.90909H174.017V12.108H173.881C173.395 11.0426 172.33 9.73864 170.139 9.73864C167.267 9.73864 164.838 11.9716 164.838 16.429C164.838 20.7841 167.199 22.8125 170.148 22.8125C172.236 22.8125 173.403 21.7642 173.881 20.6818H174.034V23.0767C174.034 24.875 172.884 25.5739 171.307 25.5739C169.705 25.5739 168.895 24.875 168.597 24.0824L165.239 24.5341C165.673 26.5966 167.693 28.1818 171.222 28.1818ZM171.298 20.0852C169.517 20.0852 168.545 18.6705 168.545 16.4119C168.545 14.1875 169.5 12.6278 171.298 12.6278C173.062 12.6278 174.051 14.1193 174.051 16.4119C174.051 18.7216 173.045 20.0852 171.298 20.0852ZM188.906 17.4261C188.915 19.1818 187.713 20.1023 186.409 20.1023C185.037 20.1023 184.151 19.1392 184.142 17.5966V9.90909H180.511V18.2443C180.52 21.304 182.31 23.1705 184.943 23.1705C186.912 23.1705 188.327 22.1562 188.915 20.6222H189.051V23H192.537V9.90909H188.906V17.4261ZM185.233 8.22159H187.798L190.398 4.34375H187.04L185.233 8.22159ZM199.072 15.4318C199.08 13.7443 200.086 12.7557 201.552 12.7557C203.009 12.7557 203.887 13.7102 203.879 15.3125V23H207.509V14.6648C207.509 11.6136 205.719 9.73864 202.992 9.73864C201.049 9.73864 199.643 10.6932 199.055 12.2188H198.901V9.90909H195.441V23H199.072V15.4318ZM215.925 23H219.556V15.142C219.556 13.6932 220.477 12.7301 221.687 12.7301C222.88 12.7301 223.681 13.5483 223.681 14.8352V23H227.201V15.0057C227.201 13.6506 227.977 12.7301 229.298 12.7301C230.457 12.7301 231.326 13.4545 231.326 14.9119V23H234.948V14.196C234.948 11.358 233.261 9.73864 230.823 9.73864C228.906 9.73864 227.414 10.7188 226.877 12.2188H226.741C226.323 10.7017 224.985 9.73864 223.187 9.73864C221.423 9.73864 220.085 10.6761 219.539 12.2188H219.386V9.90909H215.925V23ZM243.782 23.2557C247.021 23.2557 249.202 21.679 249.714 19.25L246.356 19.0284C245.989 20.0256 245.052 20.5455 243.842 20.5455C242.026 20.5455 240.876 19.3438 240.876 17.392V17.3835H249.79V16.3864C249.79 11.9375 247.097 9.73864 243.637 9.73864C239.785 9.73864 237.288 12.4744 237.288 16.5142C237.288 20.6648 239.751 23.2557 243.782 23.2557ZM240.876 15.1335C240.952 13.642 242.086 12.4489 243.697 12.4489C245.273 12.4489 246.364 13.5739 246.373 15.1335H240.876ZM255.79 15.4318C255.799 13.7443 256.805 12.7557 258.271 12.7557C259.728 12.7557 260.606 13.7102 260.597 15.3125V23H264.228V14.6648C264.228 11.6136 262.438 9.73864 259.711 9.73864C257.768 9.73864 256.362 10.6932 255.773 12.2188H255.62V9.90909H252.16V23H255.79V15.4318ZM277.982 13.642C277.658 11.2301 275.714 9.73864 272.408 9.73864C269.058 9.73864 266.851 11.2898 266.859 13.8125C266.851 15.7727 268.087 17.0426 270.643 17.554L272.911 18.0057C274.053 18.2358 274.572 18.6534 274.589 19.3097C274.572 20.0852 273.729 20.6392 272.459 20.6392C271.163 20.6392 270.303 20.0852 270.081 19.0199L266.51 19.2074C266.851 21.7131 268.982 23.2557 272.45 23.2557C275.842 23.2557 278.271 21.5256 278.28 18.9432C278.271 17.0511 277.036 15.9176 274.496 15.3977L272.126 14.9205C270.908 14.6562 270.456 14.2386 270.464 13.608C270.456 12.8239 271.342 12.3125 272.467 12.3125C273.729 12.3125 274.479 13.0028 274.658 13.8466L277.982 13.642ZM284.299 23.2472C286.234 23.2472 287.487 22.4034 288.126 21.1847H288.228V23H291.671V14.1705C291.671 11.0511 289.029 9.73864 286.114 9.73864C282.978 9.73864 280.915 11.2386 280.413 13.625L283.771 13.8977C284.018 13.0284 284.793 12.3892 286.097 12.3892C287.333 12.3892 288.04 13.0114 288.04 14.0852V14.1364C288.04 14.9801 287.146 15.0909 284.87 15.3125C282.279 15.5511 279.952 16.4205 279.952 19.3438C279.952 21.9347 281.802 23.2472 284.299 23.2472ZM285.339 20.7415C284.222 20.7415 283.421 20.2216 283.421 19.2244C283.421 18.2017 284.265 17.6989 285.543 17.5199C286.336 17.4091 287.631 17.2216 288.066 16.9318V18.321C288.066 19.6932 286.933 20.7415 285.339 20.7415ZM294.488 9.90909V23.5881C294.488 24.5767 294.07 25.071 292.903 25.071C292.749 25.071 292.613 25.071 292.425 25.054V27.892C292.69 27.9006 292.903 27.9091 293.158 27.9091C296.244 27.9091 298.119 26.6818 298.119 23.6477V9.90909H294.488ZM296.295 8.22159C297.377 8.22159 298.263 7.39489 298.263 6.38068C298.263 5.375 297.377 4.54829 296.295 4.54829C295.221 4.54829 294.335 5.375 294.335 6.38068C294.335 7.39489 295.221 8.22159 296.295 8.22159ZM306.993 23.2557C310.232 23.2557 312.413 21.679 312.925 19.25L309.567 19.0284C309.2 20.0256 308.263 20.5455 307.053 20.5455C305.237 20.5455 304.087 19.3438 304.087 17.392V17.3835H313.001V16.3864C313.001 11.9375 310.308 9.73864 306.848 9.73864C302.996 9.73864 300.499 12.4744 300.499 16.5142C300.499 20.6648 302.962 23.2557 306.993 23.2557ZM304.087 15.1335C304.163 13.642 305.297 12.4489 306.908 12.4489C308.484 12.4489 309.575 13.5739 309.584 15.1335H304.087ZM327.965 9.90909H325.366V9.03125C325.366 8.14489 325.724 7.625 326.789 7.625C327.224 7.625 327.667 7.71875 327.957 7.8125L328.596 5.08523C328.144 4.94886 327.147 4.72727 326.031 4.72727C323.567 4.72727 321.735 6.11648 321.735 8.96307V9.90909H319.886V12.6364H321.735V23H325.366V12.6364H327.965V9.90909ZM338.578 17.4261C338.587 19.1818 337.385 20.1023 336.081 20.1023C334.709 20.1023 333.822 19.1392 333.814 17.5966V9.90909H330.183V18.2443C330.192 21.304 331.982 23.1705 334.615 23.1705C336.584 23.1705 337.999 22.1562 338.587 20.6222H338.723V23H342.209V9.90909H338.578V17.4261ZM351.079 23.2557C354.317 23.2557 356.499 21.679 357.011 19.25L353.653 19.0284C353.286 20.0256 352.349 20.5455 351.138 20.5455C349.323 20.5455 348.173 19.3438 348.173 17.392V17.3835H357.087V16.3864C357.087 11.9375 354.394 9.73864 350.934 9.73864C347.082 9.73864 344.585 12.4744 344.585 16.5142C344.585 20.6648 347.048 23.2557 351.079 23.2557ZM348.173 15.1335C348.249 13.642 349.383 12.4489 350.994 12.4489C352.57 12.4489 353.661 13.5739 353.67 15.1335H348.173ZM370.977 23.2557C374.216 23.2557 376.398 21.679 376.909 19.25L373.551 19.0284C373.185 20.0256 372.247 20.5455 371.037 20.5455C369.222 20.5455 368.071 19.3438 368.071 17.392V17.3835H376.986V16.3864C376.986 11.9375 374.293 9.73864 370.832 9.73864C366.98 9.73864 364.483 12.4744 364.483 16.5142C364.483 20.6648 366.946 23.2557 370.977 23.2557ZM368.071 15.1335C368.148 13.642 369.281 12.4489 370.892 12.4489C372.469 12.4489 373.56 13.5739 373.568 15.1335H368.071ZM382.986 15.4318C382.994 13.7443 384 12.7557 385.466 12.7557C386.923 12.7557 387.801 13.7102 387.793 15.3125V23H391.423V14.6648C391.423 11.6136 389.634 9.73864 386.906 9.73864C384.963 9.73864 383.557 10.6932 382.969 12.2188H382.815V9.90909H379.355V23H382.986V15.4318ZM400.2 23.2557C403.685 23.2557 405.876 21.2102 406.046 18.2017H402.62C402.407 19.5994 401.487 20.3835 400.242 20.3835C398.546 20.3835 397.447 18.9602 397.447 16.4545C397.447 13.983 398.555 12.5682 400.242 12.5682C401.572 12.5682 402.424 13.446 402.62 14.75H406.046C405.893 11.7244 403.6 9.73864 400.183 9.73864C396.211 9.73864 393.756 12.4915 393.756 16.5057C393.756 20.4858 396.168 23.2557 400.2 23.2557ZM414.286 23.2557C418.257 23.2557 420.729 20.5369 420.729 16.5057C420.729 12.4489 418.257 9.73864 414.286 9.73864C410.314 9.73864 407.842 12.4489 407.842 16.5057C407.842 20.5369 410.314 23.2557 414.286 23.2557ZM414.303 20.4432C412.47 20.4432 411.533 18.7642 411.533 16.4801C411.533 14.196 412.47 12.5085 414.303 12.5085C416.101 12.5085 417.038 14.196 417.038 16.4801C417.038 18.7642 416.101 20.4432 414.303 20.4432ZM426.72 15.4318C426.729 13.7443 427.734 12.7557 429.2 12.7557C430.658 12.7557 431.536 13.7102 431.527 15.3125V23H435.158V14.6648C435.158 11.6136 433.368 9.73864 430.641 9.73864C428.697 9.73864 427.291 10.6932 426.703 12.2188H426.55V9.90909H423.089V23H426.72V15.4318ZM444.982 9.90909H442.519V6.77273H438.888V9.90909H437.099V12.6364H438.888V19.4545C438.871 22.0199 440.619 23.2898 443.252 23.179C444.19 23.1449 444.854 22.9574 445.221 22.8381L444.65 20.1364C444.471 20.1705 444.087 20.2557 443.746 20.2557C443.022 20.2557 442.519 19.983 442.519 18.9773V12.6364H444.982V9.90909ZM447.347 23H450.978V15.5938C450.978 13.983 452.154 12.875 453.756 12.875C454.259 12.875 454.95 12.9602 455.29 13.071V9.84943C454.967 9.77273 454.515 9.72159 454.148 9.72159C452.683 9.72159 451.481 10.5739 451.004 12.1932H450.867V9.90909H447.347V23ZM460.526 23.2472C462.46 23.2472 463.713 22.4034 464.352 21.1847H464.455V23H467.898V14.1705C467.898 11.0511 465.256 9.73864 462.341 9.73864C459.205 9.73864 457.142 11.2386 456.639 13.625L459.997 13.8977C460.244 13.0284 461.02 12.3892 462.324 12.3892C463.56 12.3892 464.267 13.0114 464.267 14.0852V14.1364C464.267 14.9801 463.372 15.0909 461.097 15.3125C458.506 15.5511 456.179 16.4205 456.179 19.3438C456.179 21.9347 458.028 23.2472 460.526 23.2472ZM461.565 20.7415C460.449 20.7415 459.648 20.2216 459.648 19.2244C459.648 18.2017 460.491 17.6989 461.77 17.5199C462.562 17.4091 463.858 17.2216 464.293 16.9318V18.321C464.293 19.6932 463.159 20.7415 461.565 20.7415ZM475.538 23.2131C477.652 23.2131 478.751 21.9943 479.254 20.9034H479.408V23H482.987V5.54545H479.365V12.108H479.254C478.768 11.0426 477.72 9.73864 475.53 9.73864C472.658 9.73864 470.229 11.9716 470.229 16.4716C470.229 20.8523 472.555 23.2131 475.538 23.2131ZM476.689 20.3239C474.908 20.3239 473.936 18.7386 473.936 16.4545C473.936 14.1875 474.891 12.6278 476.689 12.6278C478.453 12.6278 479.442 14.1193 479.442 16.4545C479.442 18.7898 478.436 20.3239 476.689 20.3239ZM491.887 23.2557C495.859 23.2557 498.33 20.5369 498.33 16.5057C498.33 12.4489 495.859 9.73864 491.887 9.73864C487.915 9.73864 485.444 12.4489 485.444 16.5057C485.444 20.5369 487.915 23.2557 491.887 23.2557ZM491.904 20.4432C490.072 20.4432 489.134 18.7642 489.134 16.4801C489.134 14.196 490.072 12.5085 491.904 12.5085C493.702 12.5085 494.64 14.196 494.64 16.4801C494.64 18.7642 493.702 20.4432 491.904 20.4432Z" fill="#343A40"/>
<path d="M115.654 51.3636H114.245V63H115.654V51.3636ZM119.638 57.75C119.638 56.2273 120.582 55.3636 121.866 55.3636C123.11 55.3636 123.866 56.1761 123.866 57.5455V63H125.207V57.4545C125.207 55.2273 124.019 54.1591 122.252 54.1591C120.934 54.1591 120.116 54.75 119.707 55.6364H119.593V54.2727H118.298V63H119.638V57.75ZM131.18 66.4545C133.271 66.4545 134.952 65.5 134.952 63.25V54.2727H133.657V55.6591H133.521C133.225 55.2045 132.68 54.1591 130.975 54.1591C128.771 54.1591 127.248 55.9091 127.248 58.5909C127.248 61.3182 128.839 62.8636 130.952 62.8636C132.657 62.8636 133.202 61.8636 133.498 61.3864H133.612V63.1591C133.612 64.6136 132.589 65.2727 131.18 65.2727C129.594 65.2727 129.038 64.4375 128.68 63.9545L127.612 64.7045C128.157 65.6193 129.231 66.4545 131.18 66.4545ZM131.134 61.6591C129.452 61.6591 128.589 60.3864 128.589 58.5682C128.589 56.7955 129.43 55.3636 131.134 55.3636C132.771 55.3636 133.634 56.6818 133.634 58.5682C133.634 60.5 132.748 61.6591 131.134 61.6591ZM137.407 63H138.748V57.4773C138.748 56.2955 139.68 55.4318 140.952 55.4318C141.31 55.4318 141.68 55.5 141.771 55.5227V54.1591C141.617 54.1477 141.265 54.1364 141.066 54.1364C140.021 54.1364 139.112 54.7273 138.793 55.5909H138.702V54.2727H137.407V63ZM146.754 63.1818C148.526 63.1818 149.822 62.2955 150.231 60.9773L148.935 60.6136C148.594 61.5227 147.805 61.9773 146.754 61.9773C145.18 61.9773 144.094 60.9602 144.032 59.0909H150.367V58.5227C150.367 55.2727 148.435 54.1591 146.617 54.1591C144.254 54.1591 142.685 56.0227 142.685 58.7045C142.685 61.3864 144.231 63.1818 146.754 63.1818ZM144.032 57.9318C144.123 56.5739 145.083 55.3636 146.617 55.3636C148.072 55.3636 149.004 56.4545 149.004 57.9318H144.032ZM158.589 56.2273C158.168 54.9886 157.225 54.1591 155.498 54.1591C153.657 54.1591 152.293 55.2045 152.293 56.6818C152.293 57.8864 153.009 58.6932 154.612 59.0682L156.066 59.4091C156.947 59.6136 157.362 60.0341 157.362 60.6364C157.362 61.3864 156.566 62 155.316 62C154.219 62 153.532 61.5284 153.293 60.5909L152.021 60.9091C152.333 62.392 153.555 63.1818 155.339 63.1818C157.367 63.1818 158.748 62.0739 158.748 60.5682C158.748 59.3523 157.987 58.5852 156.43 58.2045L155.134 57.8864C154.1 57.6307 153.634 57.2841 153.634 56.6136C153.634 55.8636 154.43 55.3182 155.498 55.3182C156.668 55.3182 157.151 55.9659 157.384 56.5682L158.589 56.2273ZM163.335 63.2045C164.857 63.2045 165.653 62.3864 165.925 61.8182H165.994V63H167.335V57.25C167.335 54.4773 165.221 54.1591 164.107 54.1591C162.789 54.1591 161.289 54.6136 160.607 56.2045L161.88 56.6591C162.175 56.0227 162.874 55.3409 164.153 55.3409C165.386 55.3409 165.994 55.9943 165.994 57.1136V57.1591C165.994 57.8068 165.335 57.75 163.744 57.9545C162.124 58.1648 160.357 58.5227 160.357 60.5227C160.357 62.2273 161.675 63.2045 163.335 63.2045ZM163.539 62C162.471 62 161.698 61.5227 161.698 60.5909C161.698 59.5682 162.63 59.25 163.675 59.1136C164.244 59.0455 165.766 58.8864 165.994 58.6136V59.8409C165.994 60.9318 165.13 62 163.539 62ZM177.941 63.1818C179.714 63.1818 181.009 62.2955 181.418 60.9773L180.123 60.6136C179.782 61.5227 178.992 61.9773 177.941 61.9773C176.367 61.9773 175.282 60.9602 175.219 59.0909H181.555V58.5227C181.555 55.2727 179.623 54.1591 177.805 54.1591C175.441 54.1591 173.873 56.0227 173.873 58.7045C173.873 61.3864 175.418 63.1818 177.941 63.1818ZM175.219 57.9318C175.31 56.5739 176.271 55.3636 177.805 55.3636C179.259 55.3636 180.191 56.4545 180.191 57.9318H175.219ZM184.935 51.3636H183.594V63H184.935V51.3636ZM195.687 54.2727H193.823V52.1818H192.482V54.2727H191.164V55.4091H192.482V60.8636C192.482 62.3864 193.71 63.1136 194.846 63.1136C195.346 63.1136 195.664 63.0227 195.846 62.9545L195.573 61.75C195.46 61.7727 195.278 61.8182 194.982 61.8182C194.391 61.8182 193.823 61.6364 193.823 60.5V55.4091H195.687V54.2727ZM201.269 63.1818C203.042 63.1818 204.337 62.2955 204.746 60.9773L203.451 60.6136C203.11 61.5227 202.32 61.9773 201.269 61.9773C199.695 61.9773 198.61 60.9602 198.548 59.0909H204.883V58.5227C204.883 55.2727 202.951 54.1591 201.133 54.1591C198.769 54.1591 197.201 56.0227 197.201 58.7045C197.201 61.3864 198.746 63.1818 201.269 63.1818ZM198.548 57.9318C198.638 56.5739 199.599 55.3636 201.133 55.3636C202.587 55.3636 203.519 56.4545 203.519 57.9318H198.548ZM207.688 54.2727H206.143L208.915 58.6364L206.143 63H207.688L209.779 59.6136L211.87 63H213.415L210.597 58.6364L213.415 54.2727H211.87L209.779 57.8409L207.688 54.2727ZM219.124 54.2727H217.261V52.1818H215.92V54.2727H214.602V55.4091H215.92V60.8636C215.92 62.3864 217.147 63.1136 218.283 63.1136C218.783 63.1136 219.102 63.0227 219.283 62.9545L219.011 61.75C218.897 61.7727 218.715 61.8182 218.42 61.8182C217.829 61.8182 217.261 61.6364 217.261 60.5V55.4091H219.124V54.2727ZM224.593 63.1818C226.957 63.1818 228.548 61.3864 228.548 58.6818C228.548 55.9545 226.957 54.1591 224.593 54.1591C222.229 54.1591 220.638 55.9545 220.638 58.6818C220.638 61.3864 222.229 63.1818 224.593 63.1818ZM224.593 61.9773C222.798 61.9773 221.979 60.4318 221.979 58.6818C221.979 56.9318 222.798 55.3636 224.593 55.3636C226.388 55.3636 227.207 56.9318 227.207 58.6818C227.207 60.4318 226.388 61.9773 224.593 61.9773ZM242.39 66.2727V54.2727H241.094V55.6591H240.935C240.64 55.2045 240.117 54.1591 238.413 54.1591C236.208 54.1591 234.685 55.9091 234.685 58.6591C234.685 61.4318 236.208 63.1818 238.39 63.1818C240.072 63.1818 240.64 62.1364 240.935 61.6591H241.049V66.2727H242.39ZM241.072 58.6364C241.072 60.6136 240.185 61.9773 238.572 61.9773C236.89 61.9773 236.026 60.5 236.026 58.6364C236.026 56.7955 236.867 55.3636 238.572 55.3636C240.208 55.3636 241.072 56.6818 241.072 58.6364ZM250.344 59.4318C250.344 61.0682 249.094 61.8182 248.094 61.8182C246.981 61.8182 246.185 61 246.185 59.7273V54.2727H244.844V59.8182C244.844 62.0455 246.026 63.1136 247.663 63.1136C248.981 63.1136 249.844 62.4091 250.254 61.5227H250.344V63H251.685V54.2727H250.344V59.4318ZM257.8 63.1818C259.573 63.1818 260.869 62.2955 261.278 60.9773L259.982 60.6136C259.641 61.5227 258.852 61.9773 257.8 61.9773C256.227 61.9773 255.141 60.9602 255.079 59.0909H261.414V58.5227C261.414 55.2727 259.482 54.1591 257.664 54.1591C255.3 54.1591 253.732 56.0227 253.732 58.7045C253.732 61.3864 255.278 63.1818 257.8 63.1818ZM255.079 57.9318C255.17 56.5739 256.13 55.3636 257.664 55.3636C259.119 55.3636 260.05 56.4545 260.05 57.9318H255.079ZM271.249 63.1818C272.931 63.1818 273.499 62.1364 273.795 61.6591H273.954V63H275.249V51.3636H273.908V55.6591H273.795C273.499 55.2045 272.977 54.1591 271.272 54.1591C269.067 54.1591 267.545 55.9091 267.545 58.6591C267.545 61.4318 269.067 63.1818 271.249 63.1818ZM271.431 61.9773C269.749 61.9773 268.886 60.5 268.886 58.6364C268.886 56.7955 269.727 55.3636 271.431 55.3636C273.067 55.3636 273.931 56.6818 273.931 58.6364C273.931 60.6136 273.045 61.9773 271.431 61.9773ZM281.55 63.1818C283.323 63.1818 284.619 62.2955 285.028 60.9773L283.732 60.6136C283.391 61.5227 282.602 61.9773 281.55 61.9773C279.977 61.9773 278.891 60.9602 278.829 59.0909H285.164V58.5227C285.164 55.2727 283.232 54.1591 281.414 54.1591C279.05 54.1591 277.482 56.0227 277.482 58.7045C277.482 61.3864 279.028 63.1818 281.55 63.1818ZM278.829 57.9318C278.92 56.5739 279.88 55.3636 281.414 55.3636C282.869 55.3636 283.8 56.4545 283.8 57.9318H278.829ZM293.386 56.2273C292.965 54.9886 292.022 54.1591 290.295 54.1591C288.454 54.1591 287.09 55.2045 287.09 56.6818C287.09 57.8864 287.806 58.6932 289.408 59.0682L290.863 59.4091C291.744 59.6136 292.158 60.0341 292.158 60.6364C292.158 61.3864 291.363 62 290.113 62C289.016 62 288.329 61.5284 288.09 60.5909L286.817 60.9091C287.13 62.392 288.352 63.1818 290.136 63.1818C292.164 63.1818 293.545 62.0739 293.545 60.5682C293.545 59.3523 292.783 58.5852 291.227 58.2045L289.931 57.8864C288.897 57.6307 288.431 57.2841 288.431 56.6136C288.431 55.8636 289.227 55.3182 290.295 55.3182C291.465 55.3182 291.948 55.9659 292.181 56.5682L293.386 56.2273ZM299.222 63.1818C300.995 63.1818 302.29 62.2955 302.7 60.9773L301.404 60.6136C301.063 61.5227 300.273 61.9773 299.222 61.9773C297.648 61.9773 296.563 60.9602 296.501 59.0909H302.836V58.5227C302.836 55.2727 300.904 54.1591 299.086 54.1591C296.722 54.1591 295.154 56.0227 295.154 58.7045C295.154 61.3864 296.7 63.1818 299.222 63.1818ZM296.501 57.9318C296.592 56.5739 297.552 55.3636 299.086 55.3636C300.54 55.3636 301.472 56.4545 301.472 57.9318H296.501ZM308.535 63.1818C310.308 63.1818 311.603 62.2955 312.012 60.9773L310.717 60.6136C310.376 61.5227 309.586 61.9773 308.535 61.9773C306.961 61.9773 305.876 60.9602 305.813 59.0909H312.148V58.5227C312.148 55.2727 310.217 54.1591 308.398 54.1591C306.035 54.1591 304.467 56.0227 304.467 58.7045C304.467 61.3864 306.012 63.1818 308.535 63.1818ZM305.813 57.9318C305.904 56.5739 306.864 55.3636 308.398 55.3636C309.853 55.3636 310.785 56.4545 310.785 57.9318H305.813ZM320.37 56.2273C319.95 54.9886 319.006 54.1591 317.279 54.1591C315.438 54.1591 314.075 55.2045 314.075 56.6818C314.075 57.8864 314.79 58.6932 316.393 59.0682L317.847 59.4091C318.728 59.6136 319.143 60.0341 319.143 60.6364C319.143 61.3864 318.347 62 317.097 62C316.001 62 315.313 61.5284 315.075 60.5909L313.802 60.9091C314.114 62.392 315.336 63.1818 317.12 63.1818C319.148 63.1818 320.529 62.0739 320.529 60.5682C320.529 59.3523 319.768 58.5852 318.211 58.2045L316.915 57.8864C315.881 57.6307 315.415 57.2841 315.415 56.6136C315.415 55.8636 316.211 55.3182 317.279 55.3182C318.45 55.3182 318.933 55.9659 319.165 56.5682L320.37 56.2273ZM330.707 63.1818C332.479 63.1818 333.775 62.2955 334.184 60.9773L332.888 60.6136C332.548 61.5227 331.758 61.9773 330.707 61.9773C329.133 61.9773 328.048 60.9602 327.985 59.0909H334.32V58.5227C334.32 55.2727 332.388 54.1591 330.57 54.1591C328.207 54.1591 326.638 56.0227 326.638 58.7045C326.638 61.3864 328.184 63.1818 330.707 63.1818ZM327.985 57.9318C328.076 56.5739 329.036 55.3636 330.57 55.3636C332.025 55.3636 332.957 56.4545 332.957 57.9318H327.985ZM337.701 57.75C337.701 56.2273 338.644 55.3636 339.928 55.3636C341.173 55.3636 341.928 56.1761 341.928 57.5455V63H343.269V57.4545C343.269 55.2273 342.082 54.1591 340.315 54.1591C338.996 54.1591 338.178 54.75 337.769 55.6364H337.656V54.2727H336.36V63H337.701V57.75ZM349.265 63.1818C351.197 63.1818 352.469 62 352.697 60.4545H351.356C351.106 61.4091 350.31 61.9773 349.265 61.9773C347.674 61.9773 346.651 60.6591 346.651 58.6364C346.651 56.6591 347.697 55.3636 349.265 55.3636C350.447 55.3636 351.151 56.0909 351.356 56.8864H352.697C352.469 55.25 351.083 54.1591 349.242 54.1591C346.879 54.1591 345.31 56.0227 345.31 58.6818C345.31 61.2955 346.81 63.1818 349.265 63.1818ZM354.657 63H355.998V57.4773C355.998 56.2955 356.93 55.4318 358.202 55.4318C358.56 55.4318 358.93 55.5 359.021 55.5227V54.1591C358.867 54.1477 358.515 54.1364 358.316 54.1364C357.271 54.1364 356.362 54.7273 356.043 55.5909H355.952V54.2727H354.657V63ZM360.61 63H361.951V54.2727H360.61V63ZM361.292 52.8182C361.815 52.8182 362.246 52.4091 362.246 51.9091C362.246 51.4091 361.815 51 361.292 51C360.769 51 360.337 51.4091 360.337 51.9091C360.337 52.4091 360.769 52.8182 361.292 52.8182ZM364.407 66.2727H365.748V61.6591H365.862C366.157 62.1364 366.725 63.1818 368.407 63.1818C370.589 63.1818 372.112 61.4318 372.112 58.6591C372.112 55.9091 370.589 54.1591 368.384 54.1591C366.68 54.1591 366.157 55.2045 365.862 55.6591H365.702V54.2727H364.407V66.2727ZM365.725 58.6364C365.725 56.6818 366.589 55.3636 368.225 55.3636C369.93 55.3636 370.771 56.7955 370.771 58.6364C370.771 60.5 369.907 61.9773 368.225 61.9773C366.612 61.9773 365.725 60.6136 365.725 58.6364ZM377.952 54.2727H376.089V52.1818H374.748V54.2727H373.43V55.4091H374.748V60.8636C374.748 62.3864 375.975 63.1136 377.112 63.1136C377.612 63.1136 377.93 63.0227 378.112 62.9545L377.839 61.75C377.725 61.7727 377.543 61.8182 377.248 61.8182C376.657 61.8182 376.089 61.6364 376.089 60.5V55.4091H377.952V54.2727ZM382.538 63.2045C384.06 63.2045 384.856 62.3864 385.129 61.8182H385.197V63H386.538V57.25C386.538 54.4773 384.424 54.1591 383.31 54.1591C381.992 54.1591 380.492 54.6136 379.81 56.2045L381.083 56.6591C381.379 56.0227 382.077 55.3409 383.356 55.3409C384.589 55.3409 385.197 55.9943 385.197 57.1136V57.1591C385.197 57.8068 384.538 57.75 382.947 57.9545C381.327 58.1648 379.56 58.5227 379.56 60.5227C379.56 62.2273 380.879 63.2045 382.538 63.2045ZM382.742 62C381.674 62 380.901 61.5227 380.901 60.5909C380.901 59.5682 381.833 59.25 382.879 59.1136C383.447 59.0455 384.969 58.8864 385.197 58.6136V59.8409C385.197 60.9318 384.333 62 382.742 62ZM388.985 63H390.326V57.4773C390.326 56.2955 391.258 55.4318 392.531 55.4318C392.888 55.4318 393.258 55.5 393.349 55.5227V54.1591C393.195 54.1477 392.843 54.1364 392.644 54.1364C391.599 54.1364 390.69 54.7273 390.371 55.5909H390.281V54.2727H388.985V63ZM402.984 63.1818C405.347 63.1818 406.938 61.3864 406.938 58.6818C406.938 55.9545 405.347 54.1591 402.984 54.1591C400.62 54.1591 399.029 55.9545 399.029 58.6818C399.029 61.3864 400.62 63.1818 402.984 63.1818ZM402.984 61.9773C401.188 61.9773 400.37 60.4318 400.37 58.6818C400.37 56.9318 401.188 55.3636 402.984 55.3636C404.779 55.3636 405.597 56.9318 405.597 58.6818C405.597 60.4318 404.779 61.9773 402.984 61.9773ZM416.781 63.1818C418.462 63.1818 419.031 62.1364 419.326 61.6591H419.485V63H420.781V51.3636H419.44V55.6591H419.326C419.031 55.2045 418.508 54.1591 416.803 54.1591C414.599 54.1591 413.076 55.9091 413.076 58.6591C413.076 61.4318 414.599 63.1818 416.781 63.1818ZM416.962 61.9773C415.281 61.9773 414.417 60.5 414.417 58.6364C414.417 56.7955 415.258 55.3636 416.962 55.3636C418.599 55.3636 419.462 56.6818 419.462 58.6364C419.462 60.6136 418.576 61.9773 416.962 61.9773ZM427.082 63.1818C428.854 63.1818 430.15 62.2955 430.559 60.9773L429.263 60.6136C428.923 61.5227 428.133 61.9773 427.082 61.9773C425.508 61.9773 424.423 60.9602 424.36 59.0909H430.695V58.5227C430.695 55.2727 428.763 54.1591 426.945 54.1591C424.582 54.1591 423.013 56.0227 423.013 58.7045C423.013 61.3864 424.559 63.1818 427.082 63.1818ZM424.36 57.9318C424.451 56.5739 425.411 55.3636 426.945 55.3636C428.4 55.3636 429.332 56.4545 429.332 57.9318H424.36ZM438.917 56.2273C438.496 54.9886 437.553 54.1591 435.826 54.1591C433.985 54.1591 432.621 55.2045 432.621 56.6818C432.621 57.8864 433.337 58.6932 434.94 59.0682L436.394 59.4091C437.275 59.6136 437.69 60.0341 437.69 60.6364C437.69 61.3864 436.894 62 435.644 62C434.548 62 433.86 61.5284 433.621 60.5909L432.349 60.9091C432.661 62.392 433.883 63.1818 435.667 63.1818C437.695 63.1818 439.076 62.0739 439.076 60.5682C439.076 59.3523 438.315 58.5852 436.758 58.2045L435.462 57.8864C434.428 57.6307 433.962 57.2841 433.962 56.6136C433.962 55.8636 434.758 55.3182 435.826 55.3182C436.996 55.3182 437.479 55.9659 437.712 56.5682L438.917 56.2273ZM444.754 63.1818C446.526 63.1818 447.822 62.2955 448.231 60.9773L446.935 60.6136C446.594 61.5227 445.805 61.9773 444.754 61.9773C443.18 61.9773 442.094 60.9602 442.032 59.0909H448.367V58.5227C448.367 55.2727 446.435 54.1591 444.617 54.1591C442.254 54.1591 440.685 56.0227 440.685 58.7045C440.685 61.3864 442.231 63.1818 444.754 63.1818ZM442.032 57.9318C442.123 56.5739 443.083 55.3636 444.617 55.3636C446.072 55.3636 447.004 56.4545 447.004 57.9318H442.032ZM451.748 57.75C451.748 56.2273 452.691 55.3636 453.975 55.3636C455.219 55.3636 455.975 56.1761 455.975 57.5455V63H457.316V57.4545C457.316 55.2273 456.129 54.1591 454.362 54.1591C453.043 54.1591 452.225 54.75 451.816 55.6364H451.702V54.2727H450.407V63H451.748V57.75ZM463.312 63.1818C465.244 63.1818 466.516 62 466.744 60.4545H465.403C465.153 61.4091 464.357 61.9773 463.312 61.9773C461.721 61.9773 460.698 60.6591 460.698 58.6364C460.698 56.6591 461.744 55.3636 463.312 55.3636C464.494 55.3636 465.198 56.0909 465.403 56.8864H466.744C466.516 55.25 465.13 54.1591 463.289 54.1591C460.925 54.1591 459.357 56.0227 459.357 58.6818C459.357 61.2955 460.857 63.1818 463.312 63.1818ZM468.704 63H470.045V57.4773C470.045 56.2955 470.977 55.4318 472.249 55.4318C472.607 55.4318 472.977 55.5 473.067 55.5227V54.1591C472.914 54.1477 472.562 54.1364 472.363 54.1364C471.317 54.1364 470.408 54.7273 470.09 55.5909H469.999V54.2727H468.704V63ZM474.657 63H475.998V54.2727H474.657V63ZM475.339 52.8182C475.862 52.8182 476.293 52.4091 476.293 51.9091C476.293 51.4091 475.862 51 475.339 51C474.816 51 474.384 51.4091 474.384 51.9091C474.384 52.4091 474.816 52.8182 475.339 52.8182ZM478.454 66.2727H479.795V61.6591H479.908C480.204 62.1364 480.772 63.1818 482.454 63.1818C484.636 63.1818 486.158 61.4318 486.158 58.6591C486.158 55.9091 484.636 54.1591 482.431 54.1591C480.727 54.1591 480.204 55.2045 479.908 55.6591H479.749V54.2727H478.454V66.2727ZM479.772 58.6364C479.772 56.6818 480.636 55.3636 482.272 55.3636C483.977 55.3636 484.817 56.7955 484.817 58.6364C484.817 60.5 483.954 61.9773 482.272 61.9773C480.658 61.9773 479.772 60.6136 479.772 58.6364ZM491.999 54.2727H490.136V52.1818H488.795V54.2727H487.477V55.4091H488.795V60.8636C488.795 62.3864 490.022 63.1136 491.158 63.1136C491.658 63.1136 491.977 63.0227 492.158 62.9545L491.886 61.75C491.772 61.7727 491.59 61.8182 491.295 61.8182C490.704 61.8182 490.136 61.6364 490.136 60.5V55.4091H491.999V54.2727ZM496.585 63.2045C498.107 63.2045 498.903 62.3864 499.175 61.8182H499.244V63H500.585V57.25C500.585 54.4773 498.471 54.1591 497.357 54.1591C496.039 54.1591 494.539 54.6136 493.857 56.2045L495.13 56.6591C495.425 56.0227 496.124 55.3409 497.403 55.3409C498.636 55.3409 499.244 55.9943 499.244 57.1136V57.1591C499.244 57.8068 498.585 57.75 496.994 57.9545C495.374 58.1648 493.607 58.5227 493.607 60.5227C493.607 62.2273 494.925 63.2045 496.585 63.2045ZM496.789 62C495.721 62 494.948 61.5227 494.948 60.5909C494.948 59.5682 495.88 59.25 496.925 59.1136C497.494 59.0455 499.016 58.8864 499.244 58.6136V59.8409C499.244 60.9318 498.38 62 496.789 62ZM503.032 63H504.373V57.4773C504.373 56.2955 505.305 55.4318 506.577 55.4318C506.935 55.4318 507.305 55.5 507.396 55.5227V54.1591C507.242 54.1477 506.89 54.1364 506.691 54.1364C505.646 54.1364 504.737 54.7273 504.418 55.5909H504.327V54.2727H503.032V63ZM508.962 63.0909C509.525 63.0909 509.985 62.6307 509.985 62.0682C509.985 61.5057 509.525 61.0455 508.962 61.0455C508.4 61.0455 507.94 61.5057 507.94 62.0682C507.94 62.6307 508.4 63.0909 508.962 63.0909Z" fill="#495057"/>
</svg>
