<svg width="263" height="122" viewBox="0 0 263 122" fill="none" xmlns="http://www.w3.org/2000/svg">
<path d="M30.9915 5.54545H27.3182V16.5227H27.1648L19.6307 5.54545H16.392V23H20.0824V12.0142H20.2102L27.804 23H30.9915V5.54545ZM33.9723 23H37.603V9.90909H33.9723V23ZM35.7962 8.22159C36.8786 8.22159 37.7649 7.39489 37.7649 6.38068C37.7649 5.375 36.8786 4.54829 35.7962 4.54829C34.7223 4.54829 33.8359 5.375 33.8359 6.38068C33.8359 7.39489 34.7223 8.22159 35.7962 8.22159ZM44.142 15.4318C44.1506 13.7443 45.1562 12.7557 46.6222 12.7557C48.0795 12.7557 48.9574 13.7102 48.9489 15.3125V23H52.5795V14.6648C52.5795 11.6136 50.7898 9.73864 48.0625 9.73864C46.1193 9.73864 44.7131 10.6932 44.125 12.2188H43.9716V9.90909H40.5114V23H44.142V15.4318ZM61.3388 28.1818C65.0803 28.1818 67.7393 26.4773 67.7393 23.1278V9.90909H64.1342V12.108H63.9979C63.5121 11.0426 62.4467 9.73864 60.2564 9.73864C57.3842 9.73864 54.9553 11.9716 54.9553 16.429C54.9553 20.7841 57.3161 22.8125 60.2649 22.8125C62.353 22.8125 63.5206 21.7642 63.9979 20.6818H64.1513V23.0767C64.1513 24.875 63.0007 25.5739 61.424 25.5739C59.8217 25.5739 59.0121 24.875 58.7138 24.0824L55.3558 24.5341C55.7905 26.5966 57.8104 28.1818 61.3388 28.1818ZM61.4155 20.0852C59.6342 20.0852 58.6626 18.6705 58.6626 16.4119C58.6626 14.1875 59.6172 12.6278 61.4155 12.6278C63.1797 12.6278 64.1683 14.1193 64.1683 16.4119C64.1683 18.7216 63.1626 20.0852 61.4155 20.0852ZM79.0234 17.4261C79.032 19.1818 77.8303 20.1023 76.5263 20.1023C75.1541 20.1023 74.2678 19.1392 74.2592 17.5966V9.90909H70.6286V18.2443C70.6371 21.304 72.4268 23.1705 75.0604 23.1705C77.0291 23.1705 78.4439 22.1562 79.032 20.6222H79.1683V23H82.6541V9.90909H79.0234V17.4261ZM75.3501 8.22159H77.9155L80.5149 4.34375H77.157L75.3501 8.22159ZM89.1889 15.4318C89.1974 13.7443 90.2031 12.7557 91.669 12.7557C93.1264 12.7557 94.0043 13.7102 93.9957 15.3125V23H97.6264V14.6648C97.6264 11.6136 95.8366 9.73864 93.1094 9.73864C91.1662 9.73864 89.7599 10.6932 89.1719 12.2188H89.0185V9.90909H85.5582V23H89.1889V15.4318ZM106.043 23H109.673V15.142C109.673 13.6932 110.594 12.7301 111.804 12.7301C112.997 12.7301 113.798 13.5483 113.798 14.8352V23H117.318V15.0057C117.318 13.6506 118.094 12.7301 119.415 12.7301C120.574 12.7301 121.443 13.4545 121.443 14.9119V23H125.065V14.196C125.065 11.358 123.378 9.73864 120.94 9.73864C119.023 9.73864 117.531 10.7188 116.994 12.2188H116.858C116.44 10.7017 115.102 9.73864 113.304 9.73864C111.54 9.73864 110.202 10.6761 109.656 12.2188H109.503V9.90909H106.043V23ZM133.899 23.2557C137.138 23.2557 139.32 21.679 139.831 19.25L136.473 19.0284C136.107 20.0256 135.169 20.5455 133.959 20.5455C132.143 20.5455 130.993 19.3438 130.993 17.392V17.3835H139.908V16.3864C139.908 11.9375 137.214 9.73864 133.754 9.73864C129.902 9.73864 127.405 12.4744 127.405 16.5142C127.405 20.6648 129.868 23.2557 133.899 23.2557ZM130.993 15.1335C131.07 13.642 132.203 12.4489 133.814 12.4489C135.391 12.4489 136.482 13.5739 136.49 15.1335H130.993ZM145.908 15.4318C145.916 13.7443 146.922 12.7557 148.388 12.7557C149.845 12.7557 150.723 13.7102 150.714 15.3125V23H154.345V14.6648C154.345 11.6136 152.555 9.73864 149.828 9.73864C147.885 9.73864 146.479 10.6932 145.891 12.2188H145.737V9.90909H142.277V23H145.908V15.4318ZM168.099 13.642C167.775 11.2301 165.832 9.73864 162.525 9.73864C159.175 9.73864 156.968 11.2898 156.977 13.8125C156.968 15.7727 158.204 17.0426 160.761 17.554L163.028 18.0057C164.17 18.2358 164.69 18.6534 164.707 19.3097C164.69 20.0852 163.846 20.6392 162.576 20.6392C161.281 20.6392 160.42 20.0852 160.198 19.0199L156.627 19.2074C156.968 21.7131 159.099 23.2557 162.567 23.2557C165.96 23.2557 168.388 21.5256 168.397 18.9432C168.388 17.0511 167.153 15.9176 164.613 15.3977L162.244 14.9205C161.025 14.6562 160.573 14.2386 160.582 13.608C160.573 12.8239 161.46 12.3125 162.585 12.3125C163.846 12.3125 164.596 13.0028 164.775 13.8466L168.099 13.642ZM174.416 23.2472C176.351 23.2472 177.604 22.4034 178.243 21.1847H178.345V23H181.788V14.1705C181.788 11.0511 179.146 9.73864 176.232 9.73864C173.095 9.73864 171.033 11.2386 170.53 13.625L173.888 13.8977C174.135 13.0284 174.911 12.3892 176.214 12.3892C177.45 12.3892 178.158 13.0114 178.158 14.0852V14.1364C178.158 14.9801 177.263 15.0909 174.987 15.3125C172.396 15.5511 170.07 16.4205 170.07 19.3438C170.07 21.9347 171.919 23.2472 174.416 23.2472ZM175.456 20.7415C174.339 20.7415 173.538 20.2216 173.538 19.2244C173.538 18.2017 174.382 17.6989 175.661 17.5199C176.453 17.4091 177.749 17.2216 178.183 16.9318V18.321C178.183 19.6932 177.05 20.7415 175.456 20.7415ZM184.605 9.90909V23.5881C184.605 24.5767 184.188 25.071 183.02 25.071C182.866 25.071 182.73 25.071 182.543 25.054V27.892C182.807 27.9006 183.02 27.9091 183.276 27.9091C186.361 27.9091 188.236 26.6818 188.236 23.6477V9.90909H184.605ZM186.412 8.22159C187.494 8.22159 188.381 7.39489 188.381 6.38068C188.381 5.375 187.494 4.54829 186.412 4.54829C185.338 4.54829 184.452 5.375 184.452 6.38068C184.452 7.39489 185.338 8.22159 186.412 8.22159ZM197.11 23.2557C200.349 23.2557 202.531 21.679 203.042 19.25L199.684 19.0284C199.317 20.0256 198.38 20.5455 197.17 20.5455C195.354 20.5455 194.204 19.3438 194.204 17.392V17.3835H203.119V16.3864C203.119 11.9375 200.425 9.73864 196.965 9.73864C193.113 9.73864 190.616 12.4744 190.616 16.5142C190.616 20.6648 193.079 23.2557 197.11 23.2557ZM194.204 15.1335C194.281 13.642 195.414 12.4489 197.025 12.4489C198.602 12.4489 199.692 13.5739 199.701 15.1335H194.204ZM218.082 9.90909H215.483V9.03125C215.483 8.14489 215.841 7.625 216.906 7.625C217.341 7.625 217.784 7.71875 218.074 7.8125L218.713 5.08523C218.261 4.94886 217.264 4.72727 216.148 4.72727C213.685 4.72727 211.852 6.11648 211.852 8.96307V9.90909H210.003V12.6364H211.852V23H215.483V12.6364H218.082V9.90909ZM228.695 17.4261C228.704 19.1818 227.502 20.1023 226.198 20.1023C224.826 20.1023 223.94 19.1392 223.931 17.5966V9.90909H220.3V18.2443C220.309 21.304 222.099 23.1705 224.732 23.1705C226.701 23.1705 228.116 22.1562 228.704 20.6222H228.84V23H232.326V9.90909H228.695V17.4261ZM241.196 23.2557C244.435 23.2557 246.616 21.679 247.128 19.25L243.77 19.0284C243.403 20.0256 242.466 20.5455 241.256 20.5455C239.44 20.5455 238.29 19.3438 238.29 17.392V17.3835H247.205V16.3864C247.205 11.9375 244.511 9.73864 241.051 9.73864C237.199 9.73864 234.702 12.4744 234.702 16.5142C234.702 20.6648 237.165 23.2557 241.196 23.2557ZM238.29 15.1335C238.366 13.642 239.5 12.4489 241.111 12.4489C242.688 12.4489 243.778 13.5739 243.787 15.1335H238.29ZM71.0749 52.2557C74.3136 52.2557 76.4954 50.679 77.0067 48.25L73.6488 48.0284C73.2823 49.0256 72.3448 49.5455 71.1346 49.5455C69.3192 49.5455 68.1687 48.3438 68.1687 46.392V46.3835H77.0835V45.3864C77.0835 40.9375 74.3903 38.7386 70.93 38.7386C67.0778 38.7386 64.5806 41.4744 64.5806 45.5142C64.5806 49.6648 67.0437 52.2557 71.0749 52.2557ZM68.1687 44.1335C68.2454 42.642 69.3789 41.4489 70.9897 41.4489C72.5664 41.4489 73.6573 42.5739 73.6658 44.1335H68.1687ZM83.0835 44.4318C83.092 42.7443 84.0977 41.7557 85.5636 41.7557C87.021 41.7557 87.8988 42.7102 87.8903 44.3125V52H91.521V43.6648C91.521 40.6136 89.7312 38.7386 87.0039 38.7386C85.0607 38.7386 83.6545 39.6932 83.0664 41.2188H82.913V38.9091H79.4528V52H83.0835V44.4318ZM100.297 52.2557C103.783 52.2557 105.973 50.2102 106.144 47.2017H102.718C102.505 48.5994 101.584 49.3835 100.34 49.3835C98.6438 49.3835 97.5444 47.9602 97.5444 45.4545C97.5444 42.983 98.6523 41.5682 100.34 41.5682C101.669 41.5682 102.522 42.446 102.718 43.75H106.144C105.99 40.7244 103.698 38.7386 100.28 38.7386C96.3086 38.7386 93.854 41.4915 93.854 45.5057C93.854 49.4858 96.266 52.2557 100.297 52.2557ZM114.383 52.2557C118.355 52.2557 120.826 49.5369 120.826 45.5057C120.826 41.4489 118.355 38.7386 114.383 38.7386C110.412 38.7386 107.94 41.4489 107.94 45.5057C107.94 49.5369 110.412 52.2557 114.383 52.2557ZM114.4 49.4432C112.568 49.4432 111.63 47.7642 111.63 45.4801C111.63 43.196 112.568 41.5085 114.4 41.5085C116.199 41.5085 117.136 43.196 117.136 45.4801C117.136 47.7642 116.199 49.4432 114.4 49.4432ZM126.818 44.4318C126.826 42.7443 127.832 41.7557 129.298 41.7557C130.755 41.7557 131.633 42.7102 131.625 44.3125V52H135.255V43.6648C135.255 40.6136 133.466 38.7386 130.738 38.7386C128.795 38.7386 127.389 39.6932 126.801 41.2188H126.647V38.9091H123.187V52H126.818V44.4318ZM145.08 38.9091H142.617V35.7727H138.986V38.9091H137.196V41.6364H138.986V48.4545C138.969 51.0199 140.716 52.2898 143.35 52.179C144.287 52.1449 144.952 51.9574 145.319 51.8381L144.748 49.1364C144.569 49.1705 144.185 49.2557 143.844 49.2557C143.12 49.2557 142.617 48.983 142.617 47.9773V41.6364H145.08V38.9091ZM147.445 52H151.076V44.5938C151.076 42.983 152.252 41.875 153.854 41.875C154.357 41.875 155.047 41.9602 155.388 42.071V38.8494C155.064 38.7727 154.613 38.7216 154.246 38.7216C152.78 38.7216 151.578 39.5739 151.101 41.1932H150.965V38.9091H147.445V52ZM160.623 52.2472C162.558 52.2472 163.811 51.4034 164.45 50.1847H164.552V52H167.995V43.1705C167.995 40.0511 165.353 38.7386 162.439 38.7386C159.302 38.7386 157.24 40.2386 156.737 42.625L160.095 42.8977C160.342 42.0284 161.118 41.3892 162.422 41.3892C163.657 41.3892 164.365 42.0114 164.365 43.0852V43.1364C164.365 43.9801 163.47 44.0909 161.194 44.3125C158.603 44.5511 156.277 45.4205 156.277 48.3438C156.277 50.9347 158.126 52.2472 160.623 52.2472ZM161.663 49.7415C160.547 49.7415 159.745 49.2216 159.745 48.2244C159.745 47.2017 160.589 46.6989 161.868 46.5199C162.66 46.4091 163.956 46.2216 164.39 45.9318V47.321C164.39 48.6932 163.257 49.7415 161.663 49.7415ZM175.636 52.2131C177.75 52.2131 178.849 50.9943 179.352 49.9034H179.505V52H183.085V34.5455H179.463V41.108H179.352C178.866 40.0426 177.818 38.7386 175.627 38.7386C172.755 38.7386 170.326 40.9716 170.326 45.4716C170.326 49.8523 172.653 52.2131 175.636 52.2131ZM176.787 49.3239C175.005 49.3239 174.034 47.7386 174.034 45.4545C174.034 43.1875 174.988 41.6278 176.787 41.6278C178.551 41.6278 179.539 43.1193 179.539 45.4545C179.539 47.7898 178.534 49.3239 176.787 49.3239ZM191.985 52.2557C195.956 52.2557 198.428 49.5369 198.428 45.5057C198.428 41.4489 195.956 38.7386 191.985 38.7386C188.013 38.7386 185.542 41.4489 185.542 45.5057C185.542 49.5369 188.013 52.2557 191.985 52.2557ZM192.002 49.4432C190.169 49.4432 189.232 47.7642 189.232 45.4801C189.232 43.196 190.169 41.5085 192.002 41.5085C193.8 41.5085 194.738 43.196 194.738 45.4801C194.738 47.7642 193.8 49.4432 192.002 49.4432Z" fill="#343A40"/>
<path d="M30.076 80.3636H28.6669V92H30.076V80.3636ZM34.0604 86.75C34.0604 85.2273 35.0036 84.3636 36.2876 84.3636C37.532 84.3636 38.2876 85.1761 38.2876 86.5455V92H39.6286V86.4545C39.6286 84.2273 38.4411 83.1591 36.674 83.1591C35.3558 83.1591 34.5376 83.75 34.1286 84.6364H34.0149V83.2727H32.7195V92H34.0604V86.75ZM45.6016 95.4545C47.6925 95.4545 49.3743 94.5 49.3743 92.25V83.2727H48.0788V84.6591H47.9425C47.647 84.2045 47.1016 83.1591 45.397 83.1591C43.1925 83.1591 41.6697 84.9091 41.6697 87.5909C41.6697 90.3182 43.2607 91.8636 45.3743 91.8636C47.0788 91.8636 47.6243 90.8636 47.9197 90.3864H48.0334V92.1591C48.0334 93.6136 47.0107 94.2727 45.6016 94.2727C44.0163 94.2727 43.4595 93.4375 43.1016 92.9545L42.0334 93.7045C42.5788 94.6193 43.6527 95.4545 45.6016 95.4545ZM45.5561 90.6591C43.8743 90.6591 43.0107 89.3864 43.0107 87.5682C43.0107 85.7955 43.8516 84.3636 45.5561 84.3636C47.1925 84.3636 48.0561 85.6818 48.0561 87.5682C48.0561 89.5 47.1697 90.6591 45.5561 90.6591ZM51.8288 92H53.1697V86.4773C53.1697 85.2955 54.1016 84.4318 55.3743 84.4318C55.7322 84.4318 56.1016 84.5 56.1925 84.5227V83.1591C56.0391 83.1477 55.6868 83.1364 55.4879 83.1364C54.4425 83.1364 53.5334 83.7273 53.2152 84.5909H53.1243V83.2727H51.8288V92ZM61.1754 92.1818C62.9482 92.1818 64.2436 91.2955 64.6527 89.9773L63.3572 89.6136C63.0163 90.5227 62.2266 90.9773 61.1754 90.9773C59.6016 90.9773 58.5163 89.9602 58.4538 88.0909H64.7891V87.5227C64.7891 84.2727 62.8572 83.1591 61.0391 83.1591C58.6754 83.1591 57.1072 85.0227 57.1072 87.7045C57.1072 90.3864 58.6527 92.1818 61.1754 92.1818ZM58.4538 86.9318C58.5447 85.5739 59.505 84.3636 61.0391 84.3636C62.4936 84.3636 63.4254 85.4545 63.4254 86.9318H58.4538ZM73.0107 85.2273C72.5902 83.9886 71.647 83.1591 69.9197 83.1591C68.0788 83.1591 66.7152 84.2045 66.7152 85.6818C66.7152 86.8864 67.4311 87.6932 69.0334 88.0682L70.4879 88.4091C71.3686 88.6136 71.7834 89.0341 71.7834 89.6364C71.7834 90.3864 70.9879 91 69.7379 91C68.6413 91 67.9538 90.5284 67.7152 89.5909L66.4425 89.9091C66.755 91.392 67.9766 92.1818 69.7607 92.1818C71.7891 92.1818 73.1697 91.0739 73.1697 89.5682C73.1697 88.3523 72.4084 87.5852 70.8516 87.2045L69.5561 86.8864C68.522 86.6307 68.0561 86.2841 68.0561 85.6136C68.0561 84.8636 68.8516 84.3182 69.9197 84.3182C71.0902 84.3182 71.5732 84.9659 71.8061 85.5682L73.0107 85.2273ZM77.7564 92.2045C79.2791 92.2045 80.0746 91.3864 80.3473 90.8182H80.4155V92H81.7564V86.25C81.7564 83.4773 79.6428 83.1591 78.5291 83.1591C77.2109 83.1591 75.7109 83.6136 75.0291 85.2045L76.3018 85.6591C76.5973 85.0227 77.2962 84.3409 78.5746 84.3409C79.8075 84.3409 80.4155 84.9943 80.4155 86.1136V86.1591C80.4155 86.8068 79.7564 86.75 78.1655 86.9545C76.5462 87.1648 74.7791 87.5227 74.7791 89.5227C74.7791 91.2273 76.0973 92.2045 77.7564 92.2045ZM77.9609 91C76.8928 91 76.12 90.5227 76.12 89.5909C76.12 88.5682 77.0518 88.25 78.0973 88.1136C78.6655 88.0455 80.1882 87.8864 80.4155 87.6136V88.8409C80.4155 89.9318 79.5518 91 77.9609 91ZM92.3629 92.1818C94.1357 92.1818 95.4311 91.2955 95.8402 89.9773L94.5447 89.6136C94.2038 90.5227 93.4141 90.9773 92.3629 90.9773C90.7891 90.9773 89.7038 89.9602 89.6413 88.0909H95.9766V87.5227C95.9766 84.2727 94.0447 83.1591 92.2266 83.1591C89.8629 83.1591 88.2947 85.0227 88.2947 87.7045C88.2947 90.3864 89.8402 92.1818 92.3629 92.1818ZM89.6413 86.9318C89.7322 85.5739 90.6925 84.3636 92.2266 84.3636C93.6811 84.3636 94.6129 85.4545 94.6129 86.9318H89.6413ZM99.3572 80.3636H98.0163V92H99.3572V80.3636ZM110.109 83.2727H108.245V81.1818H106.904V83.2727H105.586V84.4091H106.904V89.8636C106.904 91.3864 108.131 92.1136 109.268 92.1136C109.768 92.1136 110.086 92.0227 110.268 91.9545L109.995 90.75C109.881 90.7727 109.7 90.8182 109.404 90.8182C108.813 90.8182 108.245 90.6364 108.245 89.5V84.4091H110.109V83.2727ZM115.691 92.1818C117.464 92.1818 118.759 91.2955 119.168 89.9773L117.873 89.6136C117.532 90.5227 116.742 90.9773 115.691 90.9773C114.117 90.9773 113.032 89.9602 112.969 88.0909H119.305V87.5227C119.305 84.2727 117.373 83.1591 115.555 83.1591C113.191 83.1591 111.623 85.0227 111.623 87.7045C111.623 90.3864 113.168 92.1818 115.691 92.1818ZM112.969 86.9318C113.06 85.5739 114.021 84.3636 115.555 84.3636C117.009 84.3636 117.941 85.4545 117.941 86.9318H112.969ZM122.11 83.2727H120.565L123.337 87.6364L120.565 92H122.11L124.201 88.6136L126.292 92H127.837L125.019 87.6364L127.837 83.2727H126.292L124.201 86.8409L122.11 83.2727ZM133.546 83.2727H131.683V81.1818H130.342V83.2727H129.023V84.4091H130.342V89.8636C130.342 91.3864 131.569 92.1136 132.705 92.1136C133.205 92.1136 133.523 92.0227 133.705 91.9545L133.433 90.75C133.319 90.7727 133.137 90.8182 132.842 90.8182C132.251 90.8182 131.683 90.6364 131.683 89.5V84.4091H133.546V83.2727ZM139.015 92.1818C141.379 92.1818 142.969 90.3864 142.969 87.6818C142.969 84.9545 141.379 83.1591 139.015 83.1591C136.651 83.1591 135.06 84.9545 135.06 87.6818C135.06 90.3864 136.651 92.1818 139.015 92.1818ZM139.015 90.9773C137.219 90.9773 136.401 89.4318 136.401 87.6818C136.401 85.9318 137.219 84.3636 139.015 84.3636C140.81 84.3636 141.629 85.9318 141.629 87.6818C141.629 89.4318 140.81 90.9773 139.015 90.9773ZM156.812 95.2727V83.2727H155.516V84.6591H155.357C155.062 84.2045 154.539 83.1591 152.835 83.1591C150.63 83.1591 149.107 84.9091 149.107 87.6591C149.107 90.4318 150.63 92.1818 152.812 92.1818C154.494 92.1818 155.062 91.1364 155.357 90.6591H155.471V95.2727H156.812ZM155.494 87.6364C155.494 89.6136 154.607 90.9773 152.994 90.9773C151.312 90.9773 150.448 89.5 150.448 87.6364C150.448 85.7955 151.289 84.3636 152.994 84.3636C154.63 84.3636 155.494 85.6818 155.494 87.6364ZM164.766 88.4318C164.766 90.0682 163.516 90.8182 162.516 90.8182C161.403 90.8182 160.607 90 160.607 88.7273V83.2727H159.266V88.8182C159.266 91.0455 160.448 92.1136 162.085 92.1136C163.403 92.1136 164.266 91.4091 164.675 90.5227H164.766V92H166.107V83.2727H164.766V88.4318ZM172.222 92.1818C173.995 92.1818 175.29 91.2955 175.7 89.9773L174.404 89.6136C174.063 90.5227 173.273 90.9773 172.222 90.9773C170.648 90.9773 169.563 89.9602 169.501 88.0909H175.836V87.5227C175.836 84.2727 173.904 83.1591 172.086 83.1591C169.722 83.1591 168.154 85.0227 168.154 87.7045C168.154 90.3864 169.7 92.1818 172.222 92.1818ZM169.501 86.9318C169.592 85.5739 170.552 84.3636 172.086 84.3636C173.54 84.3636 174.472 85.4545 174.472 86.9318H169.501ZM185.671 92.1818C187.353 92.1818 187.921 91.1364 188.217 90.6591H188.376V92H189.671V80.3636H188.33V84.6591H188.217C187.921 84.2045 187.398 83.1591 185.694 83.1591C183.489 83.1591 181.967 84.9091 181.967 87.6591C181.967 90.4318 183.489 92.1818 185.671 92.1818ZM185.853 90.9773C184.171 90.9773 183.308 89.5 183.308 87.6364C183.308 85.7955 184.148 84.3636 185.853 84.3636C187.489 84.3636 188.353 85.6818 188.353 87.6364C188.353 89.6136 187.467 90.9773 185.853 90.9773ZM195.972 92.1818C197.745 92.1818 199.04 91.2955 199.45 89.9773L198.154 89.6136C197.813 90.5227 197.023 90.9773 195.972 90.9773C194.398 90.9773 193.313 89.9602 193.251 88.0909H199.586V87.5227C199.586 84.2727 197.654 83.1591 195.836 83.1591C193.472 83.1591 191.904 85.0227 191.904 87.7045C191.904 90.3864 193.45 92.1818 195.972 92.1818ZM193.251 86.9318C193.342 85.5739 194.302 84.3636 195.836 84.3636C197.29 84.3636 198.222 85.4545 198.222 86.9318H193.251ZM207.808 85.2273C207.387 83.9886 206.444 83.1591 204.717 83.1591C202.876 83.1591 201.512 84.2045 201.512 85.6818C201.512 86.8864 202.228 87.6932 203.83 88.0682L205.285 88.4091C206.165 88.6136 206.58 89.0341 206.58 89.6364C206.58 90.3864 205.785 91 204.535 91C203.438 91 202.751 90.5284 202.512 89.5909L201.239 89.9091C201.552 91.392 202.773 92.1818 204.558 92.1818C206.586 92.1818 207.967 91.0739 207.967 89.5682C207.967 88.3523 207.205 87.5852 205.648 87.2045L204.353 86.8864C203.319 86.6307 202.853 86.2841 202.853 85.6136C202.853 84.8636 203.648 84.3182 204.717 84.3182C205.887 84.3182 206.37 84.9659 206.603 85.5682L207.808 85.2273ZM213.644 92.1818C215.417 92.1818 216.712 91.2955 217.121 89.9773L215.826 89.6136C215.485 90.5227 214.695 90.9773 213.644 90.9773C212.07 90.9773 210.985 89.9602 210.923 88.0909H217.258V87.5227C217.258 84.2727 215.326 83.1591 213.508 83.1591C211.144 83.1591 209.576 85.0227 209.576 87.7045C209.576 90.3864 211.121 92.1818 213.644 92.1818ZM210.923 86.9318C211.013 85.5739 211.974 84.3636 213.508 84.3636C214.962 84.3636 215.894 85.4545 215.894 86.9318H210.923ZM222.957 92.1818C224.729 92.1818 226.025 91.2955 226.434 89.9773L225.138 89.6136C224.798 90.5227 224.008 90.9773 222.957 90.9773C221.383 90.9773 220.298 89.9602 220.235 88.0909H226.57V87.5227C226.57 84.2727 224.638 83.1591 222.82 83.1591C220.457 83.1591 218.888 85.0227 218.888 87.7045C218.888 90.3864 220.434 92.1818 222.957 92.1818ZM220.235 86.9318C220.326 85.5739 221.286 84.3636 222.82 84.3636C224.275 84.3636 225.207 85.4545 225.207 86.9318H220.235ZM234.792 85.2273C234.371 83.9886 233.428 83.1591 231.701 83.1591C229.86 83.1591 228.496 84.2045 228.496 85.6818C228.496 86.8864 229.212 87.6932 230.815 88.0682L232.269 88.4091C233.15 88.6136 233.565 89.0341 233.565 89.6364C233.565 90.3864 232.769 91 231.519 91C230.423 91 229.735 90.5284 229.496 89.5909L228.224 89.9091C228.536 91.392 229.758 92.1818 231.542 92.1818C233.57 92.1818 234.951 91.0739 234.951 89.5682C234.951 88.3523 234.19 87.5852 232.633 87.2045L231.337 86.8864C230.303 86.6307 229.837 86.2841 229.837 85.6136C229.837 84.8636 230.633 84.3182 231.701 84.3182C232.871 84.3182 233.354 84.9659 233.587 85.5682L234.792 85.2273ZM43.7145 116.182C45.4872 116.182 46.7827 115.295 47.1918 113.977L45.8963 113.614C45.5554 114.523 44.7656 114.977 43.7145 114.977C42.1406 114.977 41.0554 113.96 40.9929 112.091H47.3281V111.523C47.3281 108.273 45.3963 107.159 43.5781 107.159C41.2145 107.159 39.6463 109.023 39.6463 111.705C39.6463 114.386 41.1918 116.182 43.7145 116.182ZM40.9929 110.932C41.0838 109.574 42.044 108.364 43.5781 108.364C45.0327 108.364 45.9645 109.455 45.9645 110.932H40.9929ZM50.7088 110.75C50.7088 109.227 51.652 108.364 52.9361 108.364C54.1804 108.364 54.9361 109.176 54.9361 110.545V116H56.277V110.455C56.277 108.227 55.0895 107.159 53.3224 107.159C52.0043 107.159 51.1861 107.75 50.777 108.636H50.6634V107.273H49.3679V116H50.7088V110.75ZM62.2727 116.182C64.2045 116.182 65.4773 115 65.7045 113.455H64.3636C64.1136 114.409 63.3182 114.977 62.2727 114.977C60.6818 114.977 59.6591 113.659 59.6591 111.636C59.6591 109.659 60.7045 108.364 62.2727 108.364C63.4545 108.364 64.1591 109.091 64.3636 109.886H65.7045C65.4773 108.25 64.0909 107.159 62.25 107.159C59.8864 107.159 58.3182 109.023 58.3182 111.682C58.3182 114.295 59.8182 116.182 62.2727 116.182ZM67.6648 116H69.0057V110.477C69.0057 109.295 69.9375 108.432 71.2102 108.432C71.5682 108.432 71.9375 108.5 72.0284 108.523V107.159C71.875 107.148 71.5227 107.136 71.3239 107.136C70.2784 107.136 69.3693 107.727 69.0511 108.591H68.9602V107.273H67.6648V116ZM73.6179 116H74.9588V107.273H73.6179V116ZM74.2997 105.818C74.8224 105.818 75.2543 105.409 75.2543 104.909C75.2543 104.409 74.8224 104 74.2997 104C73.777 104 73.3452 104.409 73.3452 104.909C73.3452 105.409 73.777 105.818 74.2997 105.818ZM77.4148 119.273H78.7557V114.659H78.8693C79.1648 115.136 79.733 116.182 81.4148 116.182C83.5966 116.182 85.1193 114.432 85.1193 111.659C85.1193 108.909 83.5966 107.159 81.392 107.159C79.6875 107.159 79.1648 108.205 78.8693 108.659H78.7102V107.273H77.4148V119.273ZM78.733 111.636C78.733 109.682 79.5966 108.364 81.233 108.364C82.9375 108.364 83.7784 109.795 83.7784 111.636C83.7784 113.5 82.9148 114.977 81.233 114.977C79.6193 114.977 78.733 113.614 78.733 111.636ZM90.9602 107.273H89.0966V105.182H87.7557V107.273H86.4375V108.409H87.7557V113.864C87.7557 115.386 88.983 116.114 90.1193 116.114C90.6193 116.114 90.9375 116.023 91.1193 115.955L90.8466 114.75C90.733 114.773 90.5511 114.818 90.2557 114.818C89.6648 114.818 89.0966 114.636 89.0966 113.5V108.409H90.9602V107.273ZM95.5455 116.205C97.0682 116.205 97.8636 115.386 98.1364 114.818H98.2045V116H99.5455V110.25C99.5455 107.477 97.4318 107.159 96.3182 107.159C95 107.159 93.5 107.614 92.8182 109.205L94.0909 109.659C94.3864 109.023 95.0852 108.341 96.3636 108.341C97.5966 108.341 98.2045 108.994 98.2045 110.114V110.159C98.2045 110.807 97.5455 110.75 95.9545 110.955C94.3352 111.165 92.5682 111.523 92.5682 113.523C92.5682 115.227 93.8864 116.205 95.5455 116.205ZM95.75 115C94.6818 115 93.9091 114.523 93.9091 113.591C93.9091 112.568 94.8409 112.25 95.8864 112.114C96.4545 112.045 97.9773 111.886 98.2045 111.614V112.841C98.2045 113.932 97.3409 115 95.75 115ZM101.993 116H103.334V110.477C103.334 109.295 104.266 108.432 105.538 108.432C105.896 108.432 106.266 108.5 106.357 108.523V107.159C106.203 107.148 105.851 107.136 105.652 107.136C104.607 107.136 103.697 107.727 103.379 108.591H103.288V107.273H101.993V116ZM115.991 116.182C118.355 116.182 119.946 114.386 119.946 111.682C119.946 108.955 118.355 107.159 115.991 107.159C113.628 107.159 112.037 108.955 112.037 111.682C112.037 114.386 113.628 116.182 115.991 116.182ZM115.991 114.977C114.196 114.977 113.378 113.432 113.378 111.682C113.378 109.932 114.196 108.364 115.991 108.364C117.787 108.364 118.605 109.932 118.605 111.682C118.605 113.432 117.787 114.977 115.991 114.977ZM129.788 116.182C131.47 116.182 132.038 115.136 132.334 114.659H132.493V116H133.788V104.364H132.447V108.659H132.334C132.038 108.205 131.516 107.159 129.811 107.159C127.607 107.159 126.084 108.909 126.084 111.659C126.084 114.432 127.607 116.182 129.788 116.182ZM129.97 114.977C128.288 114.977 127.425 113.5 127.425 111.636C127.425 109.795 128.266 108.364 129.97 108.364C131.607 108.364 132.47 109.682 132.47 111.636C132.47 113.614 131.584 114.977 129.97 114.977ZM140.089 116.182C141.862 116.182 143.158 115.295 143.567 113.977L142.271 113.614C141.93 114.523 141.141 114.977 140.089 114.977C138.516 114.977 137.43 113.96 137.368 112.091H143.703V111.523C143.703 108.273 141.771 107.159 139.953 107.159C137.589 107.159 136.021 109.023 136.021 111.705C136.021 114.386 137.567 116.182 140.089 116.182ZM137.368 110.932C137.459 109.574 138.419 108.364 139.953 108.364C141.408 108.364 142.339 109.455 142.339 110.932H137.368ZM151.925 109.227C151.504 107.989 150.561 107.159 148.834 107.159C146.993 107.159 145.629 108.205 145.629 109.682C145.629 110.886 146.345 111.693 147.947 112.068L149.402 112.409C150.283 112.614 150.697 113.034 150.697 113.636C150.697 114.386 149.902 115 148.652 115C147.555 115 146.868 114.528 146.629 113.591L145.357 113.909C145.669 115.392 146.891 116.182 148.675 116.182C150.703 116.182 152.084 115.074 152.084 113.568C152.084 112.352 151.322 111.585 149.766 111.205L148.47 110.886C147.436 110.631 146.97 110.284 146.97 109.614C146.97 108.864 147.766 108.318 148.834 108.318C150.004 108.318 150.487 108.966 150.72 109.568L151.925 109.227ZM157.761 116.182C159.534 116.182 160.83 115.295 161.239 113.977L159.943 113.614C159.602 114.523 158.812 114.977 157.761 114.977C156.188 114.977 155.102 113.96 155.04 112.091H161.375V111.523C161.375 108.273 159.443 107.159 157.625 107.159C155.261 107.159 153.693 109.023 153.693 111.705C153.693 114.386 155.239 116.182 157.761 116.182ZM155.04 110.932C155.131 109.574 156.091 108.364 157.625 108.364C159.08 108.364 160.011 109.455 160.011 110.932H155.04ZM164.756 110.75C164.756 109.227 165.699 108.364 166.983 108.364C168.227 108.364 168.983 109.176 168.983 110.545V116H170.324V110.455C170.324 108.227 169.136 107.159 167.369 107.159C166.051 107.159 165.233 107.75 164.824 108.636H164.71V107.273H163.415V116H164.756V110.75ZM176.32 116.182C178.251 116.182 179.524 115 179.751 113.455H178.411C178.161 114.409 177.365 114.977 176.32 114.977C174.729 114.977 173.706 113.659 173.706 111.636C173.706 109.659 174.751 108.364 176.32 108.364C177.501 108.364 178.206 109.091 178.411 109.886H179.751C179.524 108.25 178.138 107.159 176.297 107.159C173.933 107.159 172.365 109.023 172.365 111.682C172.365 114.295 173.865 116.182 176.32 116.182ZM181.712 116H183.053V110.477C183.053 109.295 183.984 108.432 185.257 108.432C185.615 108.432 185.984 108.5 186.075 108.523V107.159C185.922 107.148 185.57 107.136 185.371 107.136C184.325 107.136 183.416 107.727 183.098 108.591H183.007V107.273H181.712V116ZM187.665 116H189.006V107.273H187.665V116ZM188.347 105.818C188.869 105.818 189.301 105.409 189.301 104.909C189.301 104.409 188.869 104 188.347 104C187.824 104 187.392 104.409 187.392 104.909C187.392 105.409 187.824 105.818 188.347 105.818ZM191.462 119.273H192.803V114.659H192.916C193.212 115.136 193.78 116.182 195.462 116.182C197.643 116.182 199.166 114.432 199.166 111.659C199.166 108.909 197.643 107.159 195.439 107.159C193.734 107.159 193.212 108.205 192.916 108.659H192.757V107.273H191.462V119.273ZM192.78 111.636C192.78 109.682 193.643 108.364 195.28 108.364C196.984 108.364 197.825 109.795 197.825 111.636C197.825 113.5 196.962 114.977 195.28 114.977C193.666 114.977 192.78 113.614 192.78 111.636ZM205.007 107.273H203.143V105.182H201.803V107.273H200.484V108.409H201.803V113.864C201.803 115.386 203.03 116.114 204.166 116.114C204.666 116.114 204.984 116.023 205.166 115.955L204.893 114.75C204.78 114.773 204.598 114.818 204.303 114.818C203.712 114.818 203.143 114.636 203.143 113.5V108.409H205.007V107.273ZM209.592 116.205C211.115 116.205 211.911 115.386 212.183 114.818H212.251V116H213.592V110.25C213.592 107.477 211.479 107.159 210.365 107.159C209.047 107.159 207.547 107.614 206.865 109.205L208.138 109.659C208.433 109.023 209.132 108.341 210.411 108.341C211.643 108.341 212.251 108.994 212.251 110.114V110.159C212.251 110.807 211.592 110.75 210.001 110.955C208.382 111.165 206.615 111.523 206.615 113.523C206.615 115.227 207.933 116.205 209.592 116.205ZM209.797 115C208.729 115 207.956 114.523 207.956 113.591C207.956 112.568 208.888 112.25 209.933 112.114C210.501 112.045 212.024 111.886 212.251 111.614V112.841C212.251 113.932 211.388 115 209.797 115ZM216.04 116H217.381V110.477C217.381 109.295 218.312 108.432 219.585 108.432C219.943 108.432 220.312 108.5 220.403 108.523V107.159C220.25 107.148 219.898 107.136 219.699 107.136C218.653 107.136 217.744 107.727 217.426 108.591H217.335V107.273H216.04V116ZM221.97 116.091C222.533 116.091 222.993 115.631 222.993 115.068C222.993 114.506 222.533 114.045 221.97 114.045C221.408 114.045 220.947 114.506 220.947 115.068C220.947 115.631 221.408 116.091 221.97 116.091Z" fill="#495057"/>
</svg>
